<svg width="14" height="14" viewBox="0 0 14 14" fill="none" xmlns="http://www.w3.org/2000/svg">
<path d="M6.90756 0.593714C7.5665 0.154421 8.42256 0.145314 9.0907 0.570488L11.8608 2.33329H13C13.3682 2.33329 13.6667 2.63177 13.6667 2.99996V8.99993C13.6667 9.36813 13.3682 9.6666 13 9.6666H11.9869C12.0266 10.2981 11.729 10.9401 11.1305 11.2993L7.7349 13.3367C7.30623 13.5938 6.7741 13.5878 6.35443 13.3316C5.88756 13.7445 5.1689 13.7899 4.64752 13.3803L1.22035 10.6875C0.709409 10.2861 0.580203 9.6002 0.844023 9.05647C0.521816 8.8038 0.333496 8.41693 0.333496 8.00727V3C0.333496 2.63181 0.631976 2.33333 1.00016 2.33333H4.29812L6.90756 0.593714ZM1.78192 8.0968L2.24328 7.69313C3.06342 6.97547 4.30711 7.04653 5.04017 7.85293L6.84163 9.83453C7.4213 10.4722 7.52703 11.409 7.10543 12.1593L10.4445 10.1559C10.6321 10.0434 10.7 9.8184 10.63 9.62887L7.67863 5.49701C7.51283 5.26491 7.21776 5.16399 6.94456 5.24595L5.28773 5.743C4.583 5.9544 3.81908 5.7618 3.29882 5.24157L3.10364 5.04639C2.72497 4.66771 2.62704 4.12879 2.7864 3.66667H1.66683V8.00727L1.78192 8.0968ZM8.3749 1.69537C8.15216 1.55365 7.86683 1.55668 7.64716 1.70311L4.04645 4.10358L4.24163 4.29876C4.41505 4.47218 4.66969 4.53637 4.9046 4.4659L6.56143 3.96885C7.38103 3.72297 8.2663 4.02573 8.76363 4.72202L11.3431 8.33327H12.3334V3.66663H11.8608C11.6072 3.66663 11.3589 3.59432 11.145 3.45818L8.3749 1.69537ZM3.12128 8.69653L2.04412 9.63907L5.47129 12.3319L5.94056 11.5106C6.0839 11.2598 6.04936 10.9452 5.85503 10.7314L4.05358 8.7498C3.80923 8.481 3.39466 8.45733 3.12128 8.69653Z" fill="#727497"/>
</svg>
