<svg width="12" height="12" viewBox="0 0 12 12" fill="none" xmlns="http://www.w3.org/2000/svg">
<path d="M2.73672 8.14007C3.47671 8.4334 4 9.1556 4 10C4 11.1046 3.10457 12 2 12C0.895433 12 0 11.1046 0 10C0 9.1292 0.55654 8.38833 1.33333 8.1138V3.88619C0.55654 3.61164 0 2.87081 0 2C0 0.895433 0.895433 0 2 0C3.10457 0 4 0.895433 4 2C4 2.87081 3.44346 3.61164 2.66667 3.88619V5.99973C3.22377 5.58127 3.91626 5.33333 4.66667 5.33333H7.33333C8.25567 5.33333 9.03213 4.709 9.26327 3.85994C8.52327 3.56659 8 2.84441 8 2C8 0.895433 8.8954 0 10 0C11.1046 0 12 0.895433 12 2C12 2.8888 11.4202 3.64219 10.6183 3.90261C10.3481 5.47233 8.9802 6.66667 7.33333 6.66667H4.66667C3.74435 6.66667 2.96786 7.291 2.73672 8.14007ZM2 9.33333C1.63181 9.33333 1.33333 9.6318 1.33333 10C1.33333 10.3682 1.63181 10.6667 2 10.6667C2.36819 10.6667 2.66667 10.3682 2.66667 10C2.66667 9.6318 2.36819 9.33333 2 9.33333ZM2 1.33333C1.63181 1.33333 1.33333 1.63181 1.33333 2C1.33333 2.36819 1.63181 2.66667 2 2.66667C2.36819 2.66667 2.66667 2.36819 2.66667 2C2.66667 1.63181 2.36819 1.33333 2 1.33333ZM10 1.33333C9.6318 1.33333 9.33333 1.63181 9.33333 2C9.33333 2.36819 9.6318 2.66667 10 2.66667C10.3682 2.66667 10.6667 2.36819 10.6667 2C10.6667 1.63181 10.3682 1.33333 10 1.33333Z" fill="#727497"/>
</svg>
