<svg width="12" height="15" viewBox="0 0 12 15" fill="none" xmlns="http://www.w3.org/2000/svg">
<path d="M2.67008 5.33305V3.99971C2.67008 2.15877 4.16247 0.666382 6.00343 0.666382C7.84436 0.666382 9.33677 2.15877 9.33677 3.99971V5.33305H11.3368C11.705 5.33305 12.0034 5.63153 12.0034 5.99971V13.9997C12.0034 14.3679 11.705 14.6664 11.3368 14.6664H0.670085C0.301898 14.6664 0.00341797 14.3679 0.00341797 13.9997V5.99971C0.00341797 5.63153 0.301898 5.33305 0.670085 5.33305H2.67008ZM2.67008 6.66638H1.33675V13.333H10.6701V6.66638H9.33677V7.99971H8.00343V6.66638H4.00342V7.99971H2.67008V6.66638ZM4.00342 5.33305H8.00343V3.99971C8.00343 2.89515 7.10796 1.99971 6.00343 1.99971C4.89883 1.99971 4.00342 2.89515 4.00342 3.99971V5.33305Z" fill="#727497"/>
</svg>
