<svg width="12" height="16" viewBox="0 0 12 16" fill="none" xmlns="http://www.w3.org/2000/svg">
<path d="M9.33317 10.1636V14.7446C9.33317 14.9286 9.1839 15.078 8.99984 15.078C8.93944 15.078 8.88017 15.0615 8.82837 15.0304L5.99984 13.3333L3.17134 15.0304C3.01348 15.1251 2.80872 15.0739 2.714 14.9161C2.68292 14.8642 2.6665 14.805 2.6665 14.7446V10.1636C1.44722 9.18616 0.666504 7.68423 0.666504 5.99996C0.666504 3.05444 3.05432 0.666626 5.99984 0.666626C8.94537 0.666626 11.3332 3.05444 11.3332 5.99996C11.3332 7.68423 10.5524 9.18616 9.33317 10.1636ZM3.99984 10.9456V12.9784L5.99984 11.7784L7.99984 12.9784V10.9456C7.38224 11.1956 6.7071 11.3333 5.99984 11.3333C5.29257 11.3333 4.61746 11.1956 3.99984 10.9456ZM5.99984 9.99996C8.20897 9.99996 9.99984 8.20909 9.99984 5.99996C9.99984 3.79082 8.20897 1.99996 5.99984 1.99996C3.7907 1.99996 1.99984 3.79082 1.99984 5.99996C1.99984 8.20909 3.7907 9.99996 5.99984 9.99996Z" fill="#727497"/>
</svg>
