<svg width="12" height="12" viewBox="0 0 12 12" fill="none" xmlns="http://www.w3.org/2000/svg">
<path d="M8 0C8.3682 0 8.66667 0.29848 8.66667 0.666667V3.33333C8.66667 3.70152 8.3682 4 8 4H6.66667V5.33333H9.33333C9.70153 5.33333 10 5.6318 10 6V8H11.3333C11.7015 8 12 8.29847 12 8.66667V11.3333C12 11.7015 11.7015 12 11.3333 12H7.33333C6.96513 12 6.66667 11.7015 6.66667 11.3333V8.66667C6.66667 8.29847 6.96513 8 7.33333 8H8.66667V6.66667H3.33333V8H4.66667C5.03487 8 5.33333 8.29847 5.33333 8.66667V11.3333C5.33333 11.7015 5.03487 12 4.66667 12H0.666667C0.29848 12 0 11.7015 0 11.3333V8.66667C0 8.29847 0.29848 8 0.666667 8H2V6C2 5.6318 2.29848 5.33333 2.66667 5.33333H5.33333V4H4C3.63181 4 3.33333 3.70152 3.33333 3.33333V0.666667C3.33333 0.29848 3.63181 0 4 0H8ZM4 9.33333H1.33333V10.6667H4V9.33333ZM10.6667 9.33333H8V10.6667H10.6667V9.33333ZM7.33333 1.33333H4.66667V2.66667H7.33333V1.33333Z" fill="#727497"/>
</svg>
