<svg width="16" height="21" viewBox="0 0 16 21" fill="none" xmlns="http://www.w3.org/2000/svg">
<path d="M8 5.00002C12.4183 5.00002 16 8.5817 16 13C16 17.4183 12.4183 21 8 21C3.58172 21 0 17.4183 0 13C0 8.5817 3.58172 5.00002 8 5.00002ZM8 8.5L6.6775 11.1797L3.72025 11.6094L5.86012 13.6953L5.35497 16.6406L8 15.25L10.645 16.6406L10.1399 13.6953L12.2798 11.6094L9.3225 11.1797L8 8.5ZM9 -0.000976562L14 2.34842e-05V3.00002L12.6366 4.13758C11.5305 3.55773 10.3025 3.17887 9.0011 3.04951L9 -0.000976562ZM7 -0.000976562L6.9997 3.04943C5.6984 3.17866 4.47046 3.55738 3.36441 4.13706L2 3.00002V2.34842e-05L7 -0.000976562Z" fill="#5CBF54"/>
</svg>
