<svg width="14" height="12" viewBox="0 0 14 12" fill="none" xmlns="http://www.w3.org/2000/svg">
<path d="M7.00059 8.66675C8.47333 8.66675 9.66726 7.47281 9.66726 6.00008C9.66726 4.52732 8.47333 3.33341 7.00059 3.33341C5.52781 3.33341 4.33391 4.52732 4.33391 6.00008C4.33391 7.47281 5.52781 8.66675 7.00059 8.66675ZM13.0036 0.668701H1.00358C0.635394 0.668701 0.336914 0.967175 0.336914 1.33537V10.6687C0.336914 11.0369 0.635394 11.3353 1.00358 11.3353H13.0036C13.3718 11.3353 13.6703 11.0369 13.6703 10.6687V1.33537C13.6703 0.967175 13.3718 0.668701 13.0036 0.668701ZM1.67025 8.43095V3.56922C2.42076 3.34475 3.01257 2.75269 3.23669 2.00203H10.7645C10.9892 2.7547 11.5835 3.34791 12.3369 3.57101V8.42915C11.5823 8.65262 10.9871 9.24748 10.7633 10.002H3.23786C3.01462 9.24955 2.42207 8.65581 1.67025 8.43095Z" fill="#727497"/>
</svg>
