<svg width="14" height="12" viewBox="0 0 14 12" fill="none" xmlns="http://www.w3.org/2000/svg">
<path d="M7.00011 8.6665C8.47284 8.6665 9.66677 7.47257 9.66677 5.99984C9.66677 4.52708 8.47284 3.33317 7.00011 3.33317C5.52733 3.33317 4.33342 4.52708 4.33342 5.99984C4.33342 7.47257 5.52733 8.6665 7.00011 8.6665ZM13.0031 0.668457H1.00309C0.634906 0.668457 0.336426 0.96693 0.336426 1.33512V10.6684C0.336426 11.0366 0.634906 11.3351 1.00309 11.3351H13.0031C13.3713 11.3351 13.6698 11.0366 13.6698 10.6684V1.33512C13.6698 0.96693 13.3713 0.668457 13.0031 0.668457ZM1.66976 8.4307V3.56898C2.42027 3.3445 3.01208 2.75245 3.23621 2.00179H10.764C10.9887 2.75446 11.583 3.34767 12.3364 3.57077V8.4289C11.5818 8.65237 10.9866 9.24724 10.7628 10.0018H3.23737C3.01413 9.2493 2.42158 8.65557 1.66976 8.4307Z" fill="#727497"/>
</svg>
