<svg width="14" height="14" viewBox="0 0 14 14" fill="none" xmlns="http://www.w3.org/2000/svg">
<path d="M11.3333 0.333252C11.7015 0.333252 12 0.631732 12 0.999919V3.50459L10.6667 4.83792V1.66659H1.33333V12.3333H10.6667V10.4946L12 9.16125V12.9999C12 13.3681 11.7015 13.6666 11.3333 13.6666H0.666667C0.29848 13.6666 0 13.3681 0 12.9999V0.999919C0 0.631732 0.29848 0.333252 0.666667 0.333252H11.3333ZM12.5188 4.87166L13.4616 5.81445L8.27613 10.9999L7.33193 10.9985L7.33333 10.0571L12.5188 4.87166ZM6.66667 6.99992V8.33325H3.33333V6.99992H6.66667ZM8.66667 4.33325V5.66658H3.33333V4.33325H8.66667Z" fill="#727497"/>
</svg>
