<svg width="14" height="16" viewBox="0 0 14 16" fill="none" xmlns="http://www.w3.org/2000/svg">
<path d="M7.33317 9.50142V10.8943C6.9161 10.7469 6.46737 10.6667 5.99984 10.6667C3.7907 10.6667 1.99984 12.4576 1.99984 14.6667H0.666504C0.666504 11.7212 3.05432 9.33342 5.99984 9.33342C6.46024 9.33342 6.90704 9.39175 7.33317 9.50142ZM5.99984 8.66675C3.78984 8.66675 1.99984 6.87675 1.99984 4.66675C1.99984 2.45675 3.78984 0.666748 5.99984 0.666748C8.20984 0.666748 9.99984 2.45675 9.99984 4.66675C9.99984 6.87675 8.20984 8.66675 5.99984 8.66675ZM5.99984 7.33342C7.47317 7.33342 8.6665 6.14008 8.6665 4.66675C8.6665 3.19341 7.47317 2.00008 5.99984 2.00008C4.5265 2.00008 3.33317 3.19341 3.33317 4.66675C3.33317 6.14008 4.5265 7.33342 5.99984 7.33342ZM9.86177 13.2762L12.2188 10.9192L13.1616 11.862L9.86177 15.1618L7.50477 12.8048L8.44757 11.862L9.86177 13.2762Z" fill="#727497"/>
</svg>
