<svg width="12" height="12" viewBox="0 0 12 12" fill="none" xmlns="http://www.w3.org/2000/svg">
<path d="M9.6701 12.0019C8.38143 12.0019 7.33676 10.9573 7.33676 9.6686C7.33676 8.37993 8.38143 7.33527 9.6701 7.33527C10.9588 7.33527 12.0034 8.37993 12.0034 9.6686C12.0034 10.9573 10.9588 12.0019 9.6701 12.0019ZM9.6701 10.6686C10.2224 10.6686 10.6701 10.2209 10.6701 9.6686C10.6701 9.11633 10.2224 8.6686 9.6701 8.6686C9.11783 8.6686 8.6701 9.11633 8.6701 9.6686C8.6701 10.2209 9.11783 10.6686 9.6701 10.6686ZM2.33675 4.6686C1.04809 4.6686 0.00341797 3.62395 0.00341797 2.33529C0.00341797 1.04662 1.04809 0.00195312 2.33675 0.00195312C3.62542 0.00195312 4.6701 1.04662 4.6701 2.33529C4.6701 3.62395 3.62542 4.6686 2.33675 4.6686ZM2.33675 3.33529C2.88904 3.33529 3.33675 2.88757 3.33675 2.33529C3.33675 1.783 2.88904 1.33529 2.33675 1.33529C1.78447 1.33529 1.33675 1.783 1.33675 2.33529C1.33675 2.88757 1.78447 3.33529 2.33675 3.33529ZM10.7175 0.3451L11.6603 1.28791L1.28938 11.6588L0.346565 10.716L10.7175 0.3451Z" fill="#727497"/>
</svg>
