<svg width="14" height="14" viewBox="0 0 14 14" fill="none" xmlns="http://www.w3.org/2000/svg">
<path d="M7.00311 13.6688C3.3212 13.6688 0.336426 10.684 0.336426 7.0021C0.336426 3.32022 3.3212 0.335449 7.00311 0.335449C10.685 0.335449 13.6698 3.32022 13.6698 7.0021C13.6698 10.684 10.685 13.6688 7.00311 13.6688ZM7.00311 12.3354C9.94864 12.3354 12.3364 9.94763 12.3364 7.0021C12.3364 4.0566 9.94864 1.66878 7.00311 1.66878C4.05757 1.66878 1.66976 4.0566 1.66976 7.0021C1.66976 9.94763 4.05757 12.3354 7.00311 12.3354ZM3.66976 5.00212L5.66977 2.66878L7.66977 5.00212H6.33644V7.66876H5.00309V5.00212H3.66976ZM10.3364 9.0021L8.33644 11.3354L6.33644 9.0021H7.66977V6.33543H9.00311V9.0021H10.3364Z" fill="#727497"/>
</svg>
