<svg width="14" height="14" viewBox="0 0 14 14" fill="none" xmlns="http://www.w3.org/2000/svg">
<path d="M11.0208 10.0779L13.876 12.933L12.9332 13.8758L10.078 11.0207C9.05143 11.842 7.7495 12.3334 6.3335 12.3334C3.0215 12.3334 0.333496 9.64537 0.333496 6.33337C0.333496 3.02137 3.0215 0.333374 6.3335 0.333374C9.6455 0.333374 12.3335 3.02137 12.3335 6.33337C12.3335 7.74937 11.8422 9.05131 11.0208 10.0779ZM9.6833 9.58324C10.4985 8.74311 11.0002 7.59711 11.0002 6.33337C11.0002 3.75504 8.91183 1.66671 6.3335 1.66671C3.75516 1.66671 1.66683 3.75504 1.66683 6.33337C1.66683 8.91171 3.75516 11 6.3335 11C7.59723 11 8.74323 10.4984 9.58336 9.68317L9.6833 9.58324Z" fill="#727497"/>
</svg>
