<svg width="14" height="14" viewBox="0 0 14 14" fill="none" xmlns="http://www.w3.org/2000/svg">
<path d="M7.00311 13.6685C3.3212 13.6685 0.336426 10.6838 0.336426 7.00185C0.336426 3.31997 3.3212 0.335205 7.00311 0.335205C10.685 0.335205 13.6698 3.31997 13.6698 7.00185C13.6698 10.6838 10.685 13.6685 7.00311 13.6685ZM7.00311 12.3352C9.94864 12.3352 12.3364 9.94739 12.3364 7.00185C12.3364 4.05635 9.94864 1.66854 7.00311 1.66854C4.05757 1.66854 1.66976 4.05635 1.66976 7.00185C1.66976 9.94739 4.05757 12.3352 7.00311 12.3352ZM3.66976 5.00187L5.66977 2.66854L7.66977 5.00187H6.33644V7.66852H5.00309V5.00187H3.66976ZM10.3364 9.00185L8.33644 11.3352L6.33644 9.00185H7.66977V6.33519H9.00311V9.00185H10.3364Z" fill="#727497"/>
</svg>
