<svg width="16" height="14" viewBox="0 0 16 14" fill="none" xmlns="http://www.w3.org/2000/svg">
<path d="M2.66667 6.55557L0 5.00004L8 0.333374L16 5.00004V10.6667H14.6667V5.77784L13.3333 6.55557V11.0076L13.1849 11.191C11.9638 12.7 10.0945 13.6667 8 13.6667C5.90545 13.6667 4.03619 12.7 2.81509 11.191L2.66667 11.0076V6.55557ZM4 7.33337V10.5278C4.97814 11.636 6.40741 12.3334 8 12.3334C9.5926 12.3334 11.0219 11.636 12 10.5278V7.33337L8 9.66671L4 7.33337ZM2.64618 5.00004L8 8.12311L13.3538 5.00004L8 1.87698L2.64618 5.00004Z" fill="#727497"/>
</svg>
