<svg width="20" height="16" viewBox="0 0 20 16" fill="none" xmlns="http://www.w3.org/2000/svg">
<path d="M1.00488 0.00292969H19.0049C19.5572 0.00292969 20.0049 0.45064 20.0049 1.00293V15.0029C20.0049 15.5552 19.5572 16.0029 19.0049 16.0029H1.00488C0.452603 16.0029 0.00488281 15.5552 0.00488281 15.0029V1.00293C0.00488281 0.45064 0.452603 0.00292969 1.00488 0.00292969ZM4.50037 2H2.00037V4.5C3.38108 4.5 4.50037 3.38071 4.50037 2ZM15.5004 2C15.5004 3.38071 16.6197 4.5 18.0004 4.5V2H15.5004ZM2.00037 11.5V14H4.50037C4.50037 12.6193 3.38108 11.5 2.00037 11.5ZM15.5004 14H18.0004V11.5C16.6197 11.5 15.5004 12.6193 15.5004 14ZM10.0004 12C12.2095 12 14.0004 10.2091 14.0004 8C14.0004 5.79086 12.2095 4 10.0004 4C7.79123 4 6.00037 5.79086 6.00037 8C6.00037 10.2091 7.79123 12 10.0004 12Z" fill="#5CBF54"/>
</svg>
